M48
; DRILL file {KiCad (5.1.9)-1} date 10/18/22 12:30:11
; FORMAT={-:-/ absolute / metric / decimal}
; #@! TF.CreationDate,2022-10-18T12:30:11+09:00
; #@! TF.GenerationSoftware,Kicad,Pcbnew,(5.1.9)-1
FMAT,2
METRIC
T1C1.200
%
G90
G05
T1
X69.25Y-213.5
X69.25Y-224.0
X69.25Y-234.5
X69.25Y-245.5
X69.25Y-256.0
X69.25Y-266.5
X73.5Y-213.5
X73.5Y-224.0
X73.5Y-234.5
X73.5Y-245.5
X73.5Y-256.0
X73.5Y-266.5
X79.5Y-213.75
X79.5Y-224.0
X79.5Y-234.5
X79.5Y-245.5
X79.5Y-256.0
X79.5Y-266.25
X85.5Y-213.75
X85.5Y-224.0
X85.5Y-234.5
X85.5Y-245.5
X85.5Y-256.0
X85.5Y-266.25
X91.5Y-214.0
X91.5Y-224.25
X91.5Y-234.5
X91.5Y-245.5
X91.5Y-255.75
X91.5Y-266.0
X99.5Y-214.0
X99.5Y-224.25
X99.5Y-234.5
X99.5Y-245.5
X99.5Y-255.75
X99.5Y-266.0
X105.5Y-214.25
X105.5Y-224.5
X105.5Y-234.5
X105.5Y-245.5
X105.5Y-255.5
X105.5Y-265.75
X113.5Y-214.25
X113.5Y-224.5
X113.5Y-234.75
X113.5Y-245.25
X113.5Y-255.5
X113.5Y-265.75
X120.25Y-214.5
X120.25Y-224.5
X120.25Y-234.75
X120.25Y-245.25
X120.25Y-255.5
X120.25Y-265.5
X126.75Y-214.5
X126.75Y-224.5
X126.75Y-234.75
X126.75Y-245.25
X126.75Y-255.5
X126.75Y-265.5
X133.5Y-214.5
X133.5Y-224.75
X133.5Y-234.75
X133.5Y-245.25
X133.5Y-255.25
X133.5Y-265.5
X143.5Y-214.75
X143.5Y-224.75
X143.5Y-234.75
X143.5Y-245.25
X143.5Y-255.25
X143.5Y-265.25
X149.5Y-214.75
X149.5Y-224.75
X149.5Y-234.75
X149.5Y-245.25
X149.5Y-255.25
X149.5Y-265.25
X159.5Y-215.0
X159.5Y-225.0
X159.5Y-234.75
X159.5Y-245.25
X159.5Y-255.0
X159.5Y-265.0
X165.5Y-215.25
X165.5Y-225.0
X165.5Y-234.75
X165.5Y-245.25
X165.5Y-255.0
X165.5Y-264.75
X176.5Y-215.25
X176.5Y-225.0
X176.5Y-234.75
X176.5Y-245.25
X176.5Y-255.0
X176.5Y-264.75
X182.5Y-215.5
X182.5Y-225.25
X182.5Y-235.0
X182.5Y-245.0
X182.5Y-254.75
X182.5Y-264.5
X195.5Y-215.5
X195.5Y-225.25
X195.5Y-235.0
X195.5Y-245.0
X195.5Y-254.75
X195.5Y-264.5
X201.5Y-215.75
X201.5Y-225.25
X201.5Y-235.0
X201.5Y-245.0
X201.5Y-254.75
X201.5Y-264.25
X214.5Y-216.0
X214.5Y-225.5
X214.5Y-235.0
X214.5Y-245.0
X214.5Y-254.5
X214.5Y-264.0
X220.5Y-216.0
X220.5Y-225.5
X220.5Y-235.0
X220.5Y-245.0
X220.5Y-254.5
X220.5Y-264.0
X235.5Y-216.25
X235.5Y-225.75
X235.5Y-235.0
X235.5Y-245.0
X235.5Y-254.25
X235.5Y-263.75
X241.5Y-216.25
X241.5Y-225.75
X241.5Y-235.0
X241.5Y-245.0
X241.5Y-254.25
X241.5Y-263.75
X256.5Y-216.5
X256.5Y-225.75
X256.5Y-235.25
X256.5Y-244.75
X256.5Y-254.25
X256.5Y-263.5
X262.5Y-216.75
X262.5Y-226.0
X262.5Y-235.25
X262.5Y-244.75
X262.5Y-254.0
X262.5Y-263.25
X281.5Y-217.0
X281.5Y-226.0
X281.5Y-235.25
X281.5Y-244.75
X281.5Y-254.0
X281.5Y-263.0
X287.5Y-217.25
X287.5Y-226.25
X287.5Y-235.25
X287.5Y-244.75
X287.5Y-253.75
X287.5Y-262.75
X306.5Y-217.5
X306.5Y-226.25
X306.5Y-235.25
X306.5Y-244.75
X306.5Y-253.75
X306.5Y-262.5
X312.5Y-217.5
X312.5Y-226.5
X312.5Y-235.25
X312.5Y-244.75
X312.5Y-253.5
X312.5Y-262.5
X333.5Y-217.75
X333.5Y-226.5
X333.5Y-235.25
X333.5Y-244.75
X333.5Y-253.5
X333.5Y-262.25
X339.5Y-218.0
X339.5Y-226.75
X339.5Y-235.5
X339.5Y-244.5
X339.5Y-253.25
X339.5Y-262.0
X361.5Y-218.25
X361.5Y-226.75
X361.5Y-235.5
X361.5Y-244.5
X361.5Y-253.25
X361.5Y-261.75
X367.5Y-218.5
X367.5Y-227.0
X367.5Y-235.5
X367.5Y-244.5
X367.5Y-253.0
X367.5Y-261.5
X391.5Y-218.75
X391.5Y-227.25
X391.5Y-235.5
X391.5Y-244.5
X391.5Y-252.75
X391.5Y-261.25
X397.5Y-219.0
X397.5Y-227.25
X397.5Y-235.5
X397.5Y-244.5
X397.5Y-252.75
X397.5Y-261.0
X421.5Y-219.25
X421.5Y-227.5
X421.5Y-235.75
X421.5Y-244.25
X421.5Y-252.5
X421.5Y-260.75
X427.5Y-219.5
X427.5Y-227.5
X427.5Y-235.75
X427.5Y-244.25
X427.5Y-252.5
X427.5Y-260.5
X453.5Y-219.75
X453.5Y-227.75
X453.5Y-235.75
X453.5Y-244.25
X453.5Y-252.25
X453.5Y-260.25
X459.5Y-220.0
X459.5Y-228.0
X459.5Y-235.75
X459.5Y-244.25
X459.5Y-252.0
X459.5Y-260.0
X489.5Y-220.5
X489.5Y-228.25
X489.5Y-236.0
X489.5Y-244.0
X489.5Y-251.75
X489.5Y-259.5
X495.5Y-220.5
X495.5Y-228.25
X495.5Y-236.0
X495.5Y-244.0
X495.5Y-251.75
X495.5Y-259.5
X526.5Y-221.0
X526.5Y-228.5
X526.5Y-236.0
X526.5Y-244.0
X526.5Y-251.5
X526.5Y-259.0
T0
M30
