G04 #@! TF.GenerationSoftware,KiCad,Pcbnew,(5.1.9)-1*
G04 #@! TF.CreationDate,2022-10-18T12:28:32+09:00*
G04 #@! TF.ProjectId,touch_sensor_touch,746f7563-685f-4736-956e-736f725f746f,rev?*
G04 #@! TF.SameCoordinates,Original*
G04 #@! TF.FileFunction,Legend,Bot*
G04 #@! TF.FilePolarity,Positive*
%FSLAX46Y46*%
G04 Gerber Fmt 4.6, Leading zero omitted, Abs format (unit mm)*
G04 Created by KiCad (PCBNEW (5.1.9)-1) date 2022-10-18 12:28:32*
%MOMM*%
%LPD*%
G01*
G04 APERTURE LIST*
%ADD10C,3.000000*%
%ADD11C,0.100000*%
G04 APERTURE END LIST*
D10*
X125000000Y-240000000D02*
G75*
G03*
X125000000Y-240000000I-1500000J0D01*
G01*
X156000000Y-240000000D02*
G75*
G03*
X156000000Y-240000000I-1500000J0D01*
G01*
X209750000Y-253250000D02*
G75*
G03*
X209750000Y-253250000I-1500000J0D01*
G01*
X209750000Y-226750000D02*
G75*
G03*
X209750000Y-226750000I-1500000J0D01*
G01*
X273500000Y-240000000D02*
G75*
G03*
X273500000Y-240000000I-1500000J0D01*
G01*
X324500000Y-240000000D02*
G75*
G03*
X324500000Y-240000000I-1500000J0D01*
G01*
X381000000Y-240000000D02*
G75*
G03*
X381000000Y-240000000I-1500000J0D01*
G01*
X442000000Y-240000000D02*
G75*
G03*
X442000000Y-240000000I-1500000J0D01*
G01*
D11*
G36*
X458000000Y-263000000D02*
G01*
X455000000Y-263000000D01*
X455000000Y-217000000D01*
X458000000Y-217000000D01*
X458000000Y-263000000D01*
G37*
X458000000Y-263000000D02*
X455000000Y-263000000D01*
X455000000Y-217000000D01*
X458000000Y-217000000D01*
X458000000Y-263000000D01*
G36*
X426000000Y-264000000D02*
G01*
X423000000Y-264000000D01*
X423000000Y-216000000D01*
X426000000Y-216000000D01*
X426000000Y-264000000D01*
G37*
X426000000Y-264000000D02*
X423000000Y-264000000D01*
X423000000Y-216000000D01*
X426000000Y-216000000D01*
X426000000Y-264000000D01*
G36*
X396000000Y-264000000D02*
G01*
X393000000Y-264000000D01*
X393000000Y-216000000D01*
X396000000Y-216000000D01*
X396000000Y-264000000D01*
G37*
X396000000Y-264000000D02*
X393000000Y-264000000D01*
X393000000Y-216000000D01*
X396000000Y-216000000D01*
X396000000Y-264000000D01*
G36*
X366000000Y-265000000D02*
G01*
X363000000Y-265000000D01*
X363000000Y-215000000D01*
X366000000Y-215000000D01*
X366000000Y-265000000D01*
G37*
X366000000Y-265000000D02*
X363000000Y-265000000D01*
X363000000Y-215000000D01*
X366000000Y-215000000D01*
X366000000Y-265000000D01*
G36*
X338000000Y-265000000D02*
G01*
X335000000Y-265000000D01*
X335000000Y-215000000D01*
X338000000Y-215000000D01*
X338000000Y-265000000D01*
G37*
X338000000Y-265000000D02*
X335000000Y-265000000D01*
X335000000Y-215000000D01*
X338000000Y-215000000D01*
X338000000Y-265000000D01*
G36*
X494000000Y-262000000D02*
G01*
X491000000Y-262000000D01*
X491000000Y-218000000D01*
X494000000Y-218000000D01*
X494000000Y-262000000D01*
G37*
X494000000Y-262000000D02*
X491000000Y-262000000D01*
X491000000Y-218000000D01*
X494000000Y-218000000D01*
X494000000Y-262000000D01*
G36*
X311000000Y-266000000D02*
G01*
X308000000Y-266000000D01*
X308000000Y-214000000D01*
X311000000Y-214000000D01*
X311000000Y-266000000D01*
G37*
X311000000Y-266000000D02*
X308000000Y-266000000D01*
X308000000Y-214000000D01*
X311000000Y-214000000D01*
X311000000Y-266000000D01*
G36*
X286000000Y-266000000D02*
G01*
X283000000Y-266000000D01*
X283000000Y-214000000D01*
X286000000Y-214000000D01*
X286000000Y-266000000D01*
G37*
X286000000Y-266000000D02*
X283000000Y-266000000D01*
X283000000Y-214000000D01*
X286000000Y-214000000D01*
X286000000Y-266000000D01*
G36*
X261000000Y-266000000D02*
G01*
X258000000Y-266000000D01*
X258000000Y-214000000D01*
X261000000Y-214000000D01*
X261000000Y-266000000D01*
G37*
X261000000Y-266000000D02*
X258000000Y-266000000D01*
X258000000Y-214000000D01*
X261000000Y-214000000D01*
X261000000Y-266000000D01*
G36*
X240000000Y-267000000D02*
G01*
X237000000Y-267000000D01*
X237000000Y-213000000D01*
X240000000Y-213000000D01*
X240000000Y-267000000D01*
G37*
X240000000Y-267000000D02*
X237000000Y-267000000D01*
X237000000Y-213000000D01*
X240000000Y-213000000D01*
X240000000Y-267000000D01*
G36*
X219000000Y-267000000D02*
G01*
X216000000Y-267000000D01*
X216000000Y-213000000D01*
X219000000Y-213000000D01*
X219000000Y-267000000D01*
G37*
X219000000Y-267000000D02*
X216000000Y-267000000D01*
X216000000Y-213000000D01*
X219000000Y-213000000D01*
X219000000Y-267000000D01*
G36*
X200000000Y-267000000D02*
G01*
X197000000Y-267000000D01*
X197000000Y-213000000D01*
X200000000Y-213000000D01*
X200000000Y-267000000D01*
G37*
X200000000Y-267000000D02*
X197000000Y-267000000D01*
X197000000Y-213000000D01*
X200000000Y-213000000D01*
X200000000Y-267000000D01*
G36*
X181000000Y-268000000D02*
G01*
X178000000Y-268000000D01*
X178000000Y-212000000D01*
X181000000Y-212000000D01*
X181000000Y-268000000D01*
G37*
X181000000Y-268000000D02*
X178000000Y-268000000D01*
X178000000Y-212000000D01*
X181000000Y-212000000D01*
X181000000Y-268000000D01*
G36*
X164000000Y-268000000D02*
G01*
X161000000Y-268000000D01*
X161000000Y-212000000D01*
X164000000Y-212000000D01*
X164000000Y-268000000D01*
G37*
X164000000Y-268000000D02*
X161000000Y-268000000D01*
X161000000Y-212000000D01*
X164000000Y-212000000D01*
X164000000Y-268000000D01*
G36*
X148000000Y-268000000D02*
G01*
X145000000Y-268000000D01*
X145000000Y-212000000D01*
X148000000Y-212000000D01*
X148000000Y-268000000D01*
G37*
X148000000Y-268000000D02*
X145000000Y-268000000D01*
X145000000Y-212000000D01*
X148000000Y-212000000D01*
X148000000Y-268000000D01*
G36*
X132000000Y-269000000D02*
G01*
X129000000Y-269000000D01*
X129000000Y-211000000D01*
X132000000Y-211000000D01*
X132000000Y-269000000D01*
G37*
X132000000Y-269000000D02*
X129000000Y-269000000D01*
X129000000Y-211000000D01*
X132000000Y-211000000D01*
X132000000Y-269000000D01*
G36*
X118000000Y-269000000D02*
G01*
X115000000Y-269000000D01*
X115000000Y-211000000D01*
X118000000Y-211000000D01*
X118000000Y-269000000D01*
G37*
X118000000Y-269000000D02*
X115000000Y-269000000D01*
X115000000Y-211000000D01*
X118000000Y-211000000D01*
X118000000Y-269000000D01*
G36*
X104000000Y-269000000D02*
G01*
X101000000Y-269000000D01*
X101000000Y-211000000D01*
X104000000Y-211000000D01*
X104000000Y-269000000D01*
G37*
X104000000Y-269000000D02*
X101000000Y-269000000D01*
X101000000Y-211000000D01*
X104000000Y-211000000D01*
X104000000Y-269000000D01*
G36*
X90000000Y-269000000D02*
G01*
X87000000Y-269000000D01*
X87000000Y-211000000D01*
X90000000Y-211000000D01*
X90000000Y-269000000D01*
G37*
X90000000Y-269000000D02*
X87000000Y-269000000D01*
X87000000Y-211000000D01*
X90000000Y-211000000D01*
X90000000Y-269000000D01*
G36*
X78000000Y-270000000D02*
G01*
X75000000Y-270000000D01*
X75000000Y-210000000D01*
X78000000Y-210000000D01*
X78000000Y-270000000D01*
G37*
X78000000Y-270000000D02*
X75000000Y-270000000D01*
X75000000Y-210000000D01*
X78000000Y-210000000D01*
X78000000Y-270000000D01*
%LPC*%
M02*
