G04 #@! TF.GenerationSoftware,KiCad,Pcbnew,(5.1.9)-1*
G04 #@! TF.CreationDate,2022-10-07T19:38:49+09:00*
G04 #@! TF.ProjectId,touch_sensor_main,746f7563-685f-4736-956e-736f725f6d61,rev?*
G04 #@! TF.SameCoordinates,Original*
G04 #@! TF.FileFunction,Profile,NP*
%FSLAX46Y46*%
G04 Gerber Fmt 4.6, Leading zero omitted, Abs format (unit mm)*
G04 Created by KiCad (PCBNEW (5.1.9)-1) date 2022-10-07 19:38:49*
%MOMM*%
%LPD*%
G01*
G04 APERTURE LIST*
G04 #@! TA.AperFunction,Profile*
%ADD10C,0.050000*%
G04 #@! TD*
G04 APERTURE END LIST*
D10*
X102000000Y-95000000D02*
X102000000Y-148000000D01*
X111000000Y-152000000D02*
X106000000Y-152000000D01*
X102000000Y-148000000D02*
X106000000Y-152000000D01*
X102000000Y-46000000D02*
X102000000Y-95000000D01*
X111000000Y-42000000D02*
X106000000Y-42000000D01*
X102000000Y-46000000D02*
X106000000Y-42000000D01*
X283000000Y-80000000D02*
X283000000Y-119000000D01*
X283000000Y-79000000D02*
X283000000Y-80000000D01*
X283000000Y-46000000D02*
X283000000Y-79000000D01*
X279000000Y-42000000D02*
X277000000Y-42000000D01*
X283000000Y-46000000D02*
X279000000Y-42000000D01*
X283000000Y-138000000D02*
X283000000Y-148000000D01*
X279000000Y-152000000D02*
X277000000Y-152000000D01*
X283000000Y-148000000D02*
X279000000Y-152000000D01*
X283000000Y-138000000D02*
X283000000Y-119000000D01*
X212000000Y-42000000D02*
X277000000Y-42000000D01*
X134000000Y-42000000D02*
X212000000Y-42000000D01*
X111000000Y-42000000D02*
X134000000Y-42000000D01*
X120000000Y-152000000D02*
X111000000Y-152000000D01*
X138000000Y-152000000D02*
X120000000Y-152000000D01*
X151000000Y-152000000D02*
X138000000Y-152000000D01*
X159000000Y-152000000D02*
X151000000Y-152000000D01*
X172000000Y-152000000D02*
X159000000Y-152000000D01*
X183000000Y-152000000D02*
X172000000Y-152000000D01*
X200000000Y-152000000D02*
X183000000Y-152000000D01*
X256000000Y-152000000D02*
X277000000Y-152000000D01*
X239000000Y-152000000D02*
X256000000Y-152000000D01*
X200000000Y-152000000D02*
X239000000Y-152000000D01*
M02*
