G04 #@! TF.GenerationSoftware,KiCad,Pcbnew,(5.1.9)-1*
G04 #@! TF.CreationDate,2022-10-07T19:38:49+09:00*
G04 #@! TF.ProjectId,touch_sensor_main,746f7563-685f-4736-956e-736f725f6d61,rev?*
G04 #@! TF.SameCoordinates,Original*
G04 #@! TF.FileFunction,Soldermask,Bot*
G04 #@! TF.FilePolarity,Negative*
%FSLAX46Y46*%
G04 Gerber Fmt 4.6, Leading zero omitted, Abs format (unit mm)*
G04 Created by KiCad (PCBNEW (5.1.9)-1) date 2022-10-07 19:38:49*
%MOMM*%
%LPD*%
G01*
G04 APERTURE LIST*
%ADD10C,1.000000*%
%ADD11C,6.600000*%
%ADD12O,1.900000X1.900000*%
%ADD13O,1.800000X1.800000*%
%ADD14C,1.750000*%
%ADD15C,1.800000*%
%ADD16O,1.250000X1.700000*%
%ADD17C,1.805000*%
%ADD18O,2.400000X2.400000*%
G04 APERTURE END LIST*
D10*
X110697056Y-47302944D03*
X109000000Y-46600000D03*
X107302944Y-47302944D03*
X106600000Y-49000000D03*
X107302944Y-50697056D03*
X109000000Y-51400000D03*
X110697056Y-50697056D03*
X111400000Y-49000000D03*
D11*
X109000000Y-49000000D03*
D10*
X110697056Y-143302944D03*
X109000000Y-142600000D03*
X107302944Y-143302944D03*
X106600000Y-145000000D03*
X107302944Y-146697056D03*
X109000000Y-147400000D03*
X110697056Y-146697056D03*
X111400000Y-145000000D03*
D11*
X109000000Y-145000000D03*
D10*
X277697056Y-47302944D03*
X276000000Y-46600000D03*
X274302944Y-47302944D03*
X273600000Y-49000000D03*
X274302944Y-50697056D03*
X276000000Y-51400000D03*
X277697056Y-50697056D03*
X278400000Y-49000000D03*
D11*
X276000000Y-49000000D03*
D10*
X277697056Y-143302944D03*
X276000000Y-142600000D03*
X274302944Y-143302944D03*
X273600000Y-145000000D03*
X274302944Y-146697056D03*
X276000000Y-147400000D03*
X277697056Y-146697056D03*
X278400000Y-145000000D03*
D11*
X276000000Y-145000000D03*
D12*
X246380000Y-147320000D03*
X248920000Y-147320000D03*
X251460000Y-147320000D03*
X254000000Y-147320000D03*
X256540000Y-147320000D03*
X259080000Y-147320000D03*
X261620000Y-147320000D03*
G36*
G01*
X263310000Y-146370000D02*
X265010000Y-146370000D01*
G75*
G02*
X265110000Y-146470000I0J-100000D01*
G01*
X265110000Y-148170000D01*
G75*
G02*
X265010000Y-148270000I-100000J0D01*
G01*
X263310000Y-148270000D01*
G75*
G02*
X263210000Y-148170000I0J100000D01*
G01*
X263210000Y-146470000D01*
G75*
G02*
X263310000Y-146370000I100000J0D01*
G01*
G37*
G36*
G01*
X141440000Y-99430000D02*
X143040000Y-99430000D01*
G75*
G02*
X143140000Y-99530000I0J-100000D01*
G01*
X143140000Y-101130000D01*
G75*
G02*
X143040000Y-101230000I-100000J0D01*
G01*
X141440000Y-101230000D01*
G75*
G02*
X141340000Y-101130000I0J100000D01*
G01*
X141340000Y-99530000D01*
G75*
G02*
X141440000Y-99430000I100000J0D01*
G01*
G37*
D13*
X124460000Y-107950000D03*
X139700000Y-100330000D03*
X127000000Y-107950000D03*
X137160000Y-100330000D03*
X129540000Y-107950000D03*
X134620000Y-100330000D03*
X132080000Y-107950000D03*
X132080000Y-100330000D03*
X134620000Y-107950000D03*
X129540000Y-100330000D03*
X137160000Y-107950000D03*
X127000000Y-100330000D03*
X139700000Y-107950000D03*
X124460000Y-100330000D03*
X142240000Y-107950000D03*
X182880000Y-107950000D03*
X165100000Y-100330000D03*
X180340000Y-107950000D03*
X167640000Y-100330000D03*
X177800000Y-107950000D03*
X170180000Y-100330000D03*
X175260000Y-107950000D03*
X172720000Y-100330000D03*
X172720000Y-107950000D03*
X175260000Y-100330000D03*
X170180000Y-107950000D03*
X177800000Y-100330000D03*
X167640000Y-107950000D03*
X180340000Y-100330000D03*
X165100000Y-107950000D03*
G36*
G01*
X182080000Y-99430000D02*
X183680000Y-99430000D01*
G75*
G02*
X183780000Y-99530000I0J-100000D01*
G01*
X183780000Y-101130000D01*
G75*
G02*
X183680000Y-101230000I-100000J0D01*
G01*
X182080000Y-101230000D01*
G75*
G02*
X181980000Y-101130000I0J100000D01*
G01*
X181980000Y-99530000D01*
G75*
G02*
X182080000Y-99430000I100000J0D01*
G01*
G37*
X223520000Y-107950000D03*
X205740000Y-100330000D03*
X220980000Y-107950000D03*
X208280000Y-100330000D03*
X218440000Y-107950000D03*
X210820000Y-100330000D03*
X215900000Y-107950000D03*
X213360000Y-100330000D03*
X213360000Y-107950000D03*
X215900000Y-100330000D03*
X210820000Y-107950000D03*
X218440000Y-100330000D03*
X208280000Y-107950000D03*
X220980000Y-100330000D03*
X205740000Y-107950000D03*
G36*
G01*
X222720000Y-99430000D02*
X224320000Y-99430000D01*
G75*
G02*
X224420000Y-99530000I0J-100000D01*
G01*
X224420000Y-101130000D01*
G75*
G02*
X224320000Y-101230000I-100000J0D01*
G01*
X222720000Y-101230000D01*
G75*
G02*
X222620000Y-101130000I0J100000D01*
G01*
X222620000Y-99530000D01*
G75*
G02*
X222720000Y-99430000I100000J0D01*
G01*
G37*
X264160000Y-107950000D03*
X246380000Y-100330000D03*
X261620000Y-107950000D03*
X248920000Y-100330000D03*
X259080000Y-107950000D03*
X251460000Y-100330000D03*
X256540000Y-107950000D03*
X254000000Y-100330000D03*
X254000000Y-107950000D03*
X256540000Y-100330000D03*
X251460000Y-107950000D03*
X259080000Y-100330000D03*
X248920000Y-107950000D03*
X261620000Y-100330000D03*
X246380000Y-107950000D03*
G36*
G01*
X263360000Y-99430000D02*
X264960000Y-99430000D01*
G75*
G02*
X265060000Y-99530000I0J-100000D01*
G01*
X265060000Y-101130000D01*
G75*
G02*
X264960000Y-101230000I-100000J0D01*
G01*
X263360000Y-101230000D01*
G75*
G02*
X263260000Y-101130000I0J100000D01*
G01*
X263260000Y-99530000D01*
G75*
G02*
X263360000Y-99430000I100000J0D01*
G01*
G37*
D14*
X149145000Y-65405000D03*
G36*
G01*
X143270000Y-66180000D02*
X143270000Y-64630000D01*
G75*
G02*
X143370000Y-64530000I100000J0D01*
G01*
X144920000Y-64530000D01*
G75*
G02*
X145020000Y-64630000I0J-100000D01*
G01*
X145020000Y-66180000D01*
G75*
G02*
X144920000Y-66280000I-100000J0D01*
G01*
X143370000Y-66280000D01*
G75*
G02*
X143270000Y-66180000I0J100000D01*
G01*
G37*
X146645000Y-67905000D03*
D13*
X114300000Y-124460000D03*
D15*
X114300000Y-116840000D03*
D13*
X119380000Y-124460000D03*
D15*
X119380000Y-116840000D03*
D13*
X124460000Y-124460000D03*
D15*
X124460000Y-116840000D03*
D13*
X129540000Y-124460000D03*
D15*
X129540000Y-116840000D03*
D13*
X134620000Y-124460000D03*
D15*
X134620000Y-116840000D03*
D13*
X139700000Y-124460000D03*
D15*
X139700000Y-116840000D03*
D13*
X144780000Y-124460000D03*
D15*
X144780000Y-116840000D03*
D13*
X149860000Y-124460000D03*
D15*
X149860000Y-116840000D03*
D13*
X154940000Y-124460000D03*
D15*
X154940000Y-116840000D03*
D13*
X160020000Y-124460000D03*
D15*
X160020000Y-116840000D03*
D13*
X165100000Y-124460000D03*
D15*
X165100000Y-116840000D03*
D13*
X170180000Y-124460000D03*
D15*
X170180000Y-116840000D03*
D13*
X175260000Y-124460000D03*
D15*
X175260000Y-116840000D03*
D13*
X180340000Y-124460000D03*
D15*
X180340000Y-116840000D03*
D13*
X185420000Y-124460000D03*
D15*
X185420000Y-116840000D03*
D13*
X190500000Y-124460000D03*
D15*
X190500000Y-116840000D03*
D13*
X195580000Y-124460000D03*
D15*
X195580000Y-116840000D03*
D13*
X200660000Y-124460000D03*
D15*
X200660000Y-116840000D03*
D13*
X205740000Y-124460000D03*
D15*
X205740000Y-116840000D03*
D13*
X210820000Y-124460000D03*
D15*
X210820000Y-116840000D03*
D13*
X215900000Y-124460000D03*
D15*
X215900000Y-116840000D03*
D13*
X220980000Y-124460000D03*
D15*
X220980000Y-116840000D03*
D13*
X226060000Y-124460000D03*
D15*
X226060000Y-116840000D03*
D13*
X231140000Y-124460000D03*
D15*
X231140000Y-116840000D03*
D13*
X236220000Y-124460000D03*
D15*
X236220000Y-116840000D03*
D13*
X241300000Y-124460000D03*
D15*
X241300000Y-116840000D03*
D13*
X246380000Y-124460000D03*
D15*
X246380000Y-116840000D03*
D13*
X251460000Y-124460000D03*
D15*
X251460000Y-116840000D03*
D13*
X256540000Y-124460000D03*
D15*
X256540000Y-116840000D03*
D13*
X261620000Y-124460000D03*
D15*
X261620000Y-116840000D03*
X266700000Y-116840000D03*
D13*
X266700000Y-124460000D03*
X271780000Y-124460000D03*
D15*
X271780000Y-116840000D03*
D13*
X137160000Y-73025000D03*
D15*
X137160000Y-80645000D03*
D13*
X144145000Y-80645000D03*
D15*
X144145000Y-73025000D03*
G36*
G01*
X133995000Y-66790000D02*
X133995000Y-65290000D01*
G75*
G02*
X134095000Y-65190000I100000J0D01*
G01*
X135145000Y-65190000D01*
G75*
G02*
X135245000Y-65290000I0J-100000D01*
G01*
X135245000Y-66790000D01*
G75*
G02*
X135145000Y-66890000I-100000J0D01*
G01*
X134095000Y-66890000D01*
G75*
G02*
X133995000Y-66790000I0J100000D01*
G01*
G37*
D16*
X137160000Y-66040000D03*
X135890000Y-66040000D03*
D12*
X124460000Y-147320000D03*
X127000000Y-147320000D03*
X129540000Y-147320000D03*
X132080000Y-147320000D03*
X134620000Y-147320000D03*
X137160000Y-147320000D03*
X139700000Y-147320000D03*
G36*
G01*
X141390000Y-146370000D02*
X143090000Y-146370000D01*
G75*
G02*
X143190000Y-146470000I0J-100000D01*
G01*
X143190000Y-148170000D01*
G75*
G02*
X143090000Y-148270000I-100000J0D01*
G01*
X141390000Y-148270000D01*
G75*
G02*
X141290000Y-148170000I0J100000D01*
G01*
X141290000Y-146470000D01*
G75*
G02*
X141390000Y-146370000I100000J0D01*
G01*
G37*
G36*
G01*
X182030000Y-146370000D02*
X183730000Y-146370000D01*
G75*
G02*
X183830000Y-146470000I0J-100000D01*
G01*
X183830000Y-148170000D01*
G75*
G02*
X183730000Y-148270000I-100000J0D01*
G01*
X182030000Y-148270000D01*
G75*
G02*
X181930000Y-148170000I0J100000D01*
G01*
X181930000Y-146470000D01*
G75*
G02*
X182030000Y-146370000I100000J0D01*
G01*
G37*
X180340000Y-147320000D03*
X177800000Y-147320000D03*
X175260000Y-147320000D03*
X172720000Y-147320000D03*
X170180000Y-147320000D03*
X167640000Y-147320000D03*
X165100000Y-147320000D03*
X205740000Y-147320000D03*
X208280000Y-147320000D03*
X210820000Y-147320000D03*
X213360000Y-147320000D03*
X215900000Y-147320000D03*
X218440000Y-147320000D03*
X220980000Y-147320000D03*
G36*
G01*
X222670000Y-146370000D02*
X224370000Y-146370000D01*
G75*
G02*
X224470000Y-146470000I0J-100000D01*
G01*
X224470000Y-148170000D01*
G75*
G02*
X224370000Y-148270000I-100000J0D01*
G01*
X222670000Y-148270000D01*
G75*
G02*
X222570000Y-148170000I0J100000D01*
G01*
X222570000Y-146470000D01*
G75*
G02*
X222670000Y-146370000I100000J0D01*
G01*
G37*
X106000000Y-55880000D03*
X106000000Y-58420000D03*
G36*
G01*
X106950000Y-60110000D02*
X106950000Y-61810000D01*
G75*
G02*
X106850000Y-61910000I-100000J0D01*
G01*
X105150000Y-61910000D01*
G75*
G02*
X105050000Y-61810000I0J100000D01*
G01*
X105050000Y-60110000D01*
G75*
G02*
X105150000Y-60010000I100000J0D01*
G01*
X106850000Y-60010000D01*
G75*
G02*
X106950000Y-60110000I0J-100000D01*
G01*
G37*
X106840000Y-104140000D03*
G36*
G01*
X108530000Y-103190000D02*
X110230000Y-103190000D01*
G75*
G02*
X110330000Y-103290000I0J-100000D01*
G01*
X110330000Y-104990000D01*
G75*
G02*
X110230000Y-105090000I-100000J0D01*
G01*
X108530000Y-105090000D01*
G75*
G02*
X108430000Y-104990000I0J100000D01*
G01*
X108430000Y-103290000D01*
G75*
G02*
X108530000Y-103190000I100000J0D01*
G01*
G37*
X106840000Y-99060000D03*
G36*
G01*
X108530000Y-98110000D02*
X110230000Y-98110000D01*
G75*
G02*
X110330000Y-98210000I0J-100000D01*
G01*
X110330000Y-99910000D01*
G75*
G02*
X110230000Y-100010000I-100000J0D01*
G01*
X108530000Y-100010000D01*
G75*
G02*
X108430000Y-99910000I0J100000D01*
G01*
X108430000Y-98210000D01*
G75*
G02*
X108530000Y-98110000I100000J0D01*
G01*
G37*
D17*
X108380000Y-90805000D03*
X105840000Y-90805000D03*
X108380000Y-88265000D03*
X105840000Y-88265000D03*
X108380000Y-85725000D03*
X105840000Y-85725000D03*
X108380000Y-83185000D03*
X105840000Y-83185000D03*
X108380000Y-80645000D03*
X105840000Y-80645000D03*
X108380000Y-78105000D03*
X105840000Y-78105000D03*
X108380000Y-75565000D03*
X105840000Y-75565000D03*
X108380000Y-73025000D03*
X105840000Y-73025000D03*
X108380000Y-70485000D03*
X105840000Y-70485000D03*
X108380000Y-67945000D03*
X105840000Y-67945000D03*
D15*
X156210000Y-72865000D03*
X158750000Y-72865000D03*
X161290000Y-72865000D03*
X163830000Y-72865000D03*
X163830000Y-80805000D03*
X161290000Y-80805000D03*
X158750000Y-80805000D03*
G36*
G01*
X157010000Y-81705000D02*
X155410000Y-81705000D01*
G75*
G02*
X155310000Y-81605000I0J100000D01*
G01*
X155310000Y-80005000D01*
G75*
G02*
X155410000Y-79905000I100000J0D01*
G01*
X157010000Y-79905000D01*
G75*
G02*
X157110000Y-80005000I0J-100000D01*
G01*
X157110000Y-81605000D01*
G75*
G02*
X157010000Y-81705000I-100000J0D01*
G01*
G37*
D18*
X114300000Y-129540000D03*
G36*
G01*
X115400000Y-138360000D02*
X113200000Y-138360000D01*
G75*
G02*
X113100000Y-138260000I0J100000D01*
G01*
X113100000Y-136060000D01*
G75*
G02*
X113200000Y-135960000I100000J0D01*
G01*
X115400000Y-135960000D01*
G75*
G02*
X115500000Y-136060000I0J-100000D01*
G01*
X115500000Y-138260000D01*
G75*
G02*
X115400000Y-138360000I-100000J0D01*
G01*
G37*
X119380000Y-129540000D03*
G36*
G01*
X120480000Y-138360000D02*
X118280000Y-138360000D01*
G75*
G02*
X118180000Y-138260000I0J100000D01*
G01*
X118180000Y-136060000D01*
G75*
G02*
X118280000Y-135960000I100000J0D01*
G01*
X120480000Y-135960000D01*
G75*
G02*
X120580000Y-136060000I0J-100000D01*
G01*
X120580000Y-138260000D01*
G75*
G02*
X120480000Y-138360000I-100000J0D01*
G01*
G37*
X124460000Y-129540000D03*
G36*
G01*
X125560000Y-138360000D02*
X123360000Y-138360000D01*
G75*
G02*
X123260000Y-138260000I0J100000D01*
G01*
X123260000Y-136060000D01*
G75*
G02*
X123360000Y-135960000I100000J0D01*
G01*
X125560000Y-135960000D01*
G75*
G02*
X125660000Y-136060000I0J-100000D01*
G01*
X125660000Y-138260000D01*
G75*
G02*
X125560000Y-138360000I-100000J0D01*
G01*
G37*
X129540000Y-129570000D03*
G36*
G01*
X130640000Y-138390000D02*
X128440000Y-138390000D01*
G75*
G02*
X128340000Y-138290000I0J100000D01*
G01*
X128340000Y-136090000D01*
G75*
G02*
X128440000Y-135990000I100000J0D01*
G01*
X130640000Y-135990000D01*
G75*
G02*
X130740000Y-136090000I0J-100000D01*
G01*
X130740000Y-138290000D01*
G75*
G02*
X130640000Y-138390000I-100000J0D01*
G01*
G37*
X134620000Y-129540000D03*
G36*
G01*
X135720000Y-138360000D02*
X133520000Y-138360000D01*
G75*
G02*
X133420000Y-138260000I0J100000D01*
G01*
X133420000Y-136060000D01*
G75*
G02*
X133520000Y-135960000I100000J0D01*
G01*
X135720000Y-135960000D01*
G75*
G02*
X135820000Y-136060000I0J-100000D01*
G01*
X135820000Y-138260000D01*
G75*
G02*
X135720000Y-138360000I-100000J0D01*
G01*
G37*
X139700000Y-129540000D03*
G36*
G01*
X140800000Y-138360000D02*
X138600000Y-138360000D01*
G75*
G02*
X138500000Y-138260000I0J100000D01*
G01*
X138500000Y-136060000D01*
G75*
G02*
X138600000Y-135960000I100000J0D01*
G01*
X140800000Y-135960000D01*
G75*
G02*
X140900000Y-136060000I0J-100000D01*
G01*
X140900000Y-138260000D01*
G75*
G02*
X140800000Y-138360000I-100000J0D01*
G01*
G37*
X144780000Y-129540000D03*
G36*
G01*
X145880000Y-138360000D02*
X143680000Y-138360000D01*
G75*
G02*
X143580000Y-138260000I0J100000D01*
G01*
X143580000Y-136060000D01*
G75*
G02*
X143680000Y-135960000I100000J0D01*
G01*
X145880000Y-135960000D01*
G75*
G02*
X145980000Y-136060000I0J-100000D01*
G01*
X145980000Y-138260000D01*
G75*
G02*
X145880000Y-138360000I-100000J0D01*
G01*
G37*
X149860000Y-129540000D03*
G36*
G01*
X150960000Y-138360000D02*
X148760000Y-138360000D01*
G75*
G02*
X148660000Y-138260000I0J100000D01*
G01*
X148660000Y-136060000D01*
G75*
G02*
X148760000Y-135960000I100000J0D01*
G01*
X150960000Y-135960000D01*
G75*
G02*
X151060000Y-136060000I0J-100000D01*
G01*
X151060000Y-138260000D01*
G75*
G02*
X150960000Y-138360000I-100000J0D01*
G01*
G37*
X154940000Y-129540000D03*
G36*
G01*
X156040000Y-138360000D02*
X153840000Y-138360000D01*
G75*
G02*
X153740000Y-138260000I0J100000D01*
G01*
X153740000Y-136060000D01*
G75*
G02*
X153840000Y-135960000I100000J0D01*
G01*
X156040000Y-135960000D01*
G75*
G02*
X156140000Y-136060000I0J-100000D01*
G01*
X156140000Y-138260000D01*
G75*
G02*
X156040000Y-138360000I-100000J0D01*
G01*
G37*
X160020000Y-129540000D03*
G36*
G01*
X161120000Y-138360000D02*
X158920000Y-138360000D01*
G75*
G02*
X158820000Y-138260000I0J100000D01*
G01*
X158820000Y-136060000D01*
G75*
G02*
X158920000Y-135960000I100000J0D01*
G01*
X161120000Y-135960000D01*
G75*
G02*
X161220000Y-136060000I0J-100000D01*
G01*
X161220000Y-138260000D01*
G75*
G02*
X161120000Y-138360000I-100000J0D01*
G01*
G37*
X165100000Y-129540000D03*
G36*
G01*
X166200000Y-138360000D02*
X164000000Y-138360000D01*
G75*
G02*
X163900000Y-138260000I0J100000D01*
G01*
X163900000Y-136060000D01*
G75*
G02*
X164000000Y-135960000I100000J0D01*
G01*
X166200000Y-135960000D01*
G75*
G02*
X166300000Y-136060000I0J-100000D01*
G01*
X166300000Y-138260000D01*
G75*
G02*
X166200000Y-138360000I-100000J0D01*
G01*
G37*
X170180000Y-129540000D03*
G36*
G01*
X171280000Y-138360000D02*
X169080000Y-138360000D01*
G75*
G02*
X168980000Y-138260000I0J100000D01*
G01*
X168980000Y-136060000D01*
G75*
G02*
X169080000Y-135960000I100000J0D01*
G01*
X171280000Y-135960000D01*
G75*
G02*
X171380000Y-136060000I0J-100000D01*
G01*
X171380000Y-138260000D01*
G75*
G02*
X171280000Y-138360000I-100000J0D01*
G01*
G37*
X175260000Y-129540000D03*
G36*
G01*
X176360000Y-138360000D02*
X174160000Y-138360000D01*
G75*
G02*
X174060000Y-138260000I0J100000D01*
G01*
X174060000Y-136060000D01*
G75*
G02*
X174160000Y-135960000I100000J0D01*
G01*
X176360000Y-135960000D01*
G75*
G02*
X176460000Y-136060000I0J-100000D01*
G01*
X176460000Y-138260000D01*
G75*
G02*
X176360000Y-138360000I-100000J0D01*
G01*
G37*
X180340000Y-129540000D03*
G36*
G01*
X181440000Y-138360000D02*
X179240000Y-138360000D01*
G75*
G02*
X179140000Y-138260000I0J100000D01*
G01*
X179140000Y-136060000D01*
G75*
G02*
X179240000Y-135960000I100000J0D01*
G01*
X181440000Y-135960000D01*
G75*
G02*
X181540000Y-136060000I0J-100000D01*
G01*
X181540000Y-138260000D01*
G75*
G02*
X181440000Y-138360000I-100000J0D01*
G01*
G37*
X185420000Y-129540000D03*
G36*
G01*
X186520000Y-138360000D02*
X184320000Y-138360000D01*
G75*
G02*
X184220000Y-138260000I0J100000D01*
G01*
X184220000Y-136060000D01*
G75*
G02*
X184320000Y-135960000I100000J0D01*
G01*
X186520000Y-135960000D01*
G75*
G02*
X186620000Y-136060000I0J-100000D01*
G01*
X186620000Y-138260000D01*
G75*
G02*
X186520000Y-138360000I-100000J0D01*
G01*
G37*
X190500000Y-129540000D03*
G36*
G01*
X191600000Y-138360000D02*
X189400000Y-138360000D01*
G75*
G02*
X189300000Y-138260000I0J100000D01*
G01*
X189300000Y-136060000D01*
G75*
G02*
X189400000Y-135960000I100000J0D01*
G01*
X191600000Y-135960000D01*
G75*
G02*
X191700000Y-136060000I0J-100000D01*
G01*
X191700000Y-138260000D01*
G75*
G02*
X191600000Y-138360000I-100000J0D01*
G01*
G37*
X195580000Y-129540000D03*
G36*
G01*
X196680000Y-138360000D02*
X194480000Y-138360000D01*
G75*
G02*
X194380000Y-138260000I0J100000D01*
G01*
X194380000Y-136060000D01*
G75*
G02*
X194480000Y-135960000I100000J0D01*
G01*
X196680000Y-135960000D01*
G75*
G02*
X196780000Y-136060000I0J-100000D01*
G01*
X196780000Y-138260000D01*
G75*
G02*
X196680000Y-138360000I-100000J0D01*
G01*
G37*
X200660000Y-129540000D03*
G36*
G01*
X201760000Y-138360000D02*
X199560000Y-138360000D01*
G75*
G02*
X199460000Y-138260000I0J100000D01*
G01*
X199460000Y-136060000D01*
G75*
G02*
X199560000Y-135960000I100000J0D01*
G01*
X201760000Y-135960000D01*
G75*
G02*
X201860000Y-136060000I0J-100000D01*
G01*
X201860000Y-138260000D01*
G75*
G02*
X201760000Y-138360000I-100000J0D01*
G01*
G37*
X205740000Y-129540000D03*
G36*
G01*
X206840000Y-138360000D02*
X204640000Y-138360000D01*
G75*
G02*
X204540000Y-138260000I0J100000D01*
G01*
X204540000Y-136060000D01*
G75*
G02*
X204640000Y-135960000I100000J0D01*
G01*
X206840000Y-135960000D01*
G75*
G02*
X206940000Y-136060000I0J-100000D01*
G01*
X206940000Y-138260000D01*
G75*
G02*
X206840000Y-138360000I-100000J0D01*
G01*
G37*
X210820000Y-129540000D03*
G36*
G01*
X211920000Y-138360000D02*
X209720000Y-138360000D01*
G75*
G02*
X209620000Y-138260000I0J100000D01*
G01*
X209620000Y-136060000D01*
G75*
G02*
X209720000Y-135960000I100000J0D01*
G01*
X211920000Y-135960000D01*
G75*
G02*
X212020000Y-136060000I0J-100000D01*
G01*
X212020000Y-138260000D01*
G75*
G02*
X211920000Y-138360000I-100000J0D01*
G01*
G37*
X215900000Y-129540000D03*
G36*
G01*
X217000000Y-138360000D02*
X214800000Y-138360000D01*
G75*
G02*
X214700000Y-138260000I0J100000D01*
G01*
X214700000Y-136060000D01*
G75*
G02*
X214800000Y-135960000I100000J0D01*
G01*
X217000000Y-135960000D01*
G75*
G02*
X217100000Y-136060000I0J-100000D01*
G01*
X217100000Y-138260000D01*
G75*
G02*
X217000000Y-138360000I-100000J0D01*
G01*
G37*
X220980000Y-129540000D03*
G36*
G01*
X222080000Y-138360000D02*
X219880000Y-138360000D01*
G75*
G02*
X219780000Y-138260000I0J100000D01*
G01*
X219780000Y-136060000D01*
G75*
G02*
X219880000Y-135960000I100000J0D01*
G01*
X222080000Y-135960000D01*
G75*
G02*
X222180000Y-136060000I0J-100000D01*
G01*
X222180000Y-138260000D01*
G75*
G02*
X222080000Y-138360000I-100000J0D01*
G01*
G37*
X226060000Y-129540000D03*
G36*
G01*
X227160000Y-138360000D02*
X224960000Y-138360000D01*
G75*
G02*
X224860000Y-138260000I0J100000D01*
G01*
X224860000Y-136060000D01*
G75*
G02*
X224960000Y-135960000I100000J0D01*
G01*
X227160000Y-135960000D01*
G75*
G02*
X227260000Y-136060000I0J-100000D01*
G01*
X227260000Y-138260000D01*
G75*
G02*
X227160000Y-138360000I-100000J0D01*
G01*
G37*
X231140000Y-129540000D03*
G36*
G01*
X232240000Y-138360000D02*
X230040000Y-138360000D01*
G75*
G02*
X229940000Y-138260000I0J100000D01*
G01*
X229940000Y-136060000D01*
G75*
G02*
X230040000Y-135960000I100000J0D01*
G01*
X232240000Y-135960000D01*
G75*
G02*
X232340000Y-136060000I0J-100000D01*
G01*
X232340000Y-138260000D01*
G75*
G02*
X232240000Y-138360000I-100000J0D01*
G01*
G37*
X236220000Y-129540000D03*
G36*
G01*
X237320000Y-138360000D02*
X235120000Y-138360000D01*
G75*
G02*
X235020000Y-138260000I0J100000D01*
G01*
X235020000Y-136060000D01*
G75*
G02*
X235120000Y-135960000I100000J0D01*
G01*
X237320000Y-135960000D01*
G75*
G02*
X237420000Y-136060000I0J-100000D01*
G01*
X237420000Y-138260000D01*
G75*
G02*
X237320000Y-138360000I-100000J0D01*
G01*
G37*
X241300000Y-129540000D03*
G36*
G01*
X242400000Y-138360000D02*
X240200000Y-138360000D01*
G75*
G02*
X240100000Y-138260000I0J100000D01*
G01*
X240100000Y-136060000D01*
G75*
G02*
X240200000Y-135960000I100000J0D01*
G01*
X242400000Y-135960000D01*
G75*
G02*
X242500000Y-136060000I0J-100000D01*
G01*
X242500000Y-138260000D01*
G75*
G02*
X242400000Y-138360000I-100000J0D01*
G01*
G37*
X246380000Y-129540000D03*
G36*
G01*
X247480000Y-138360000D02*
X245280000Y-138360000D01*
G75*
G02*
X245180000Y-138260000I0J100000D01*
G01*
X245180000Y-136060000D01*
G75*
G02*
X245280000Y-135960000I100000J0D01*
G01*
X247480000Y-135960000D01*
G75*
G02*
X247580000Y-136060000I0J-100000D01*
G01*
X247580000Y-138260000D01*
G75*
G02*
X247480000Y-138360000I-100000J0D01*
G01*
G37*
X251460000Y-129540000D03*
G36*
G01*
X252560000Y-138360000D02*
X250360000Y-138360000D01*
G75*
G02*
X250260000Y-138260000I0J100000D01*
G01*
X250260000Y-136060000D01*
G75*
G02*
X250360000Y-135960000I100000J0D01*
G01*
X252560000Y-135960000D01*
G75*
G02*
X252660000Y-136060000I0J-100000D01*
G01*
X252660000Y-138260000D01*
G75*
G02*
X252560000Y-138360000I-100000J0D01*
G01*
G37*
X256540000Y-129540000D03*
G36*
G01*
X257640000Y-138360000D02*
X255440000Y-138360000D01*
G75*
G02*
X255340000Y-138260000I0J100000D01*
G01*
X255340000Y-136060000D01*
G75*
G02*
X255440000Y-135960000I100000J0D01*
G01*
X257640000Y-135960000D01*
G75*
G02*
X257740000Y-136060000I0J-100000D01*
G01*
X257740000Y-138260000D01*
G75*
G02*
X257640000Y-138360000I-100000J0D01*
G01*
G37*
X261620000Y-129540000D03*
G36*
G01*
X262720000Y-138360000D02*
X260520000Y-138360000D01*
G75*
G02*
X260420000Y-138260000I0J100000D01*
G01*
X260420000Y-136060000D01*
G75*
G02*
X260520000Y-135960000I100000J0D01*
G01*
X262720000Y-135960000D01*
G75*
G02*
X262820000Y-136060000I0J-100000D01*
G01*
X262820000Y-138260000D01*
G75*
G02*
X262720000Y-138360000I-100000J0D01*
G01*
G37*
X266700000Y-129540000D03*
G36*
G01*
X267800000Y-138360000D02*
X265600000Y-138360000D01*
G75*
G02*
X265500000Y-138260000I0J100000D01*
G01*
X265500000Y-136060000D01*
G75*
G02*
X265600000Y-135960000I100000J0D01*
G01*
X267800000Y-135960000D01*
G75*
G02*
X267900000Y-136060000I0J-100000D01*
G01*
X267900000Y-138260000D01*
G75*
G02*
X267800000Y-138360000I-100000J0D01*
G01*
G37*
X271780000Y-129540000D03*
G36*
G01*
X272880000Y-138360000D02*
X270680000Y-138360000D01*
G75*
G02*
X270580000Y-138260000I0J100000D01*
G01*
X270580000Y-136060000D01*
G75*
G02*
X270680000Y-135960000I100000J0D01*
G01*
X272880000Y-135960000D01*
G75*
G02*
X272980000Y-136060000I0J-100000D01*
G01*
X272980000Y-138260000D01*
G75*
G02*
X272880000Y-138360000I-100000J0D01*
G01*
G37*
D15*
X146050000Y-107950000D03*
X146050000Y-102950000D03*
X186690000Y-102950000D03*
X186690000Y-107950000D03*
X227330000Y-102950000D03*
X227330000Y-107950000D03*
X267970000Y-102950000D03*
X267970000Y-107950000D03*
M02*
