M48
; DRILL file {KiCad (5.1.9)-1} date 10/07/22 19:39:43
; FORMAT={-:-/ absolute / metric / decimal}
; #@! TF.CreationDate,2022-10-07T19:39:43+09:00
; #@! TF.GenerationSoftware,Kicad,Pcbnew,(5.1.9)-1
FMAT,2
METRIC
T1C0.400
T2C0.500
T3C0.750
T4C0.800
T5C1.000
T6C1.070
T7C1.100
T8C3.200
%
G90
G05
T1
X114.3Y-140.97
X116.84Y-48.26
X116.84Y-129.54
X118.745Y-90.17
X121.92Y-129.54
X124.46Y-48.26
X127.0Y-129.54
X131.445Y-86.36
X131.445Y-88.9
X132.08Y-48.26
X132.08Y-95.25
X132.08Y-129.54
X134.62Y-85.09
X134.62Y-92.71
X137.16Y-90.805
X137.16Y-129.54
X139.7Y-48.26
X139.7Y-110.49
X142.24Y-129.54
X147.32Y-48.26
X147.32Y-129.54
X151.685Y-71.2
X152.4Y-129.54
X153.67Y-102.87
X154.94Y-48.26
X154.94Y-140.97
X154.94Y-146.05
X157.48Y-129.54
X162.56Y-48.26
X162.56Y-129.54
X167.64Y-129.54
X170.18Y-48.26
X170.18Y-55.88
X170.18Y-66.04
X170.18Y-74.93
X170.18Y-88.9
X172.72Y-95.25
X172.72Y-129.54
X175.26Y-92.71
X177.8Y-90.805
X177.8Y-129.54
X179.07Y-55.88
X179.07Y-66.04
X179.07Y-74.93
X180.34Y-110.49
X182.88Y-129.54
X187.96Y-66.04
X187.96Y-74.93
X187.96Y-129.54
X193.04Y-129.54
X194.31Y-102.87
X195.58Y-66.04
X195.58Y-74.93
X195.58Y-140.97
X195.58Y-146.05
X198.12Y-129.54
X203.2Y-66.04
X203.2Y-74.93
X203.2Y-129.54
X208.28Y-129.54
X210.82Y-66.04
X210.82Y-74.93
X210.82Y-88.9
X213.36Y-95.25
X213.36Y-129.54
X215.9Y-92.71
X218.44Y-66.04
X218.44Y-74.93
X218.44Y-90.805
X218.44Y-129.54
X220.98Y-110.49
X223.52Y-129.54
X226.06Y-66.04
X226.06Y-74.93
X228.6Y-129.54
X233.68Y-66.04
X233.68Y-74.93
X233.68Y-129.54
X234.95Y-102.87
X236.22Y-140.97
X236.22Y-146.05
X238.76Y-129.54
X241.3Y-66.04
X241.3Y-74.93
X243.84Y-129.54
X248.92Y-66.04
X248.92Y-74.93
X248.92Y-129.54
X251.46Y-88.9
X254.0Y-95.25
X254.0Y-129.54
X256.54Y-66.04
X256.54Y-74.93
X256.54Y-92.71
X259.08Y-90.805
X259.08Y-129.54
X261.62Y-86.36
X261.62Y-110.49
X264.16Y-66.04
X264.16Y-74.93
X264.16Y-90.17
X264.16Y-129.54
X269.24Y-129.54
X270.51Y-66.04
X270.51Y-74.93
X274.32Y-129.54
X276.86Y-66.04
X276.86Y-74.93
X276.86Y-83.82
X276.86Y-92.71
X276.86Y-102.87
X276.86Y-111.76
T2
X106.6Y-49.0
X106.6Y-145.0
X107.303Y-47.303
X107.303Y-50.697
X107.303Y-143.303
X107.303Y-146.697
X109.0Y-46.6
X109.0Y-51.4
X109.0Y-142.6
X109.0Y-147.4
X110.697Y-47.303
X110.697Y-50.697
X110.697Y-143.303
X110.697Y-146.697
X111.4Y-49.0
X111.4Y-145.0
X273.6Y-49.0
X273.6Y-145.0
X274.303Y-47.303
X274.303Y-50.697
X274.303Y-143.303
X274.303Y-146.697
X276.0Y-46.6
X276.0Y-51.4
X276.0Y-142.6
X276.0Y-147.4
X277.697Y-47.303
X277.697Y-50.697
X277.697Y-143.303
X277.697Y-146.697
X278.4Y-49.0
X278.4Y-145.0
T3
X134.62Y-66.04
X135.89Y-66.04
X137.16Y-66.04
T4
X114.3Y-116.84
X114.3Y-124.46
X119.38Y-116.84
X119.38Y-124.46
X124.46Y-100.33
X124.46Y-107.95
X124.46Y-116.84
X124.46Y-124.46
X127.0Y-100.33
X127.0Y-107.95
X129.54Y-100.33
X129.54Y-107.95
X129.54Y-116.84
X129.54Y-124.46
X132.08Y-100.33
X132.08Y-107.95
X134.62Y-100.33
X134.62Y-107.95
X134.62Y-116.84
X134.62Y-124.46
X137.16Y-73.025
X137.16Y-80.645
X137.16Y-100.33
X137.16Y-107.95
X139.7Y-100.33
X139.7Y-107.95
X139.7Y-116.84
X139.7Y-124.46
X142.24Y-100.33
X142.24Y-107.95
X144.145Y-73.025
X144.145Y-80.645
X144.78Y-116.84
X144.78Y-124.46
X146.05Y-102.95
X146.05Y-107.95
X149.86Y-116.84
X149.86Y-124.46
X154.94Y-116.84
X154.94Y-124.46
X160.02Y-116.84
X160.02Y-124.46
X165.1Y-100.33
X165.1Y-107.95
X165.1Y-116.84
X165.1Y-124.46
X167.64Y-100.33
X167.64Y-107.95
X170.18Y-100.33
X170.18Y-107.95
X170.18Y-116.84
X170.18Y-124.46
X172.72Y-100.33
X172.72Y-107.95
X175.26Y-100.33
X175.26Y-107.95
X175.26Y-116.84
X175.26Y-124.46
X177.8Y-100.33
X177.8Y-107.95
X180.34Y-100.33
X180.34Y-107.95
X180.34Y-116.84
X180.34Y-124.46
X182.88Y-100.33
X182.88Y-107.95
X185.42Y-116.84
X185.42Y-124.46
X186.69Y-102.95
X186.69Y-107.95
X190.5Y-116.84
X190.5Y-124.46
X195.58Y-116.84
X195.58Y-124.46
X200.66Y-116.84
X200.66Y-124.46
X205.74Y-100.33
X205.74Y-107.95
X205.74Y-116.84
X205.74Y-124.46
X208.28Y-100.33
X208.28Y-107.95
X210.82Y-100.33
X210.82Y-107.95
X210.82Y-116.84
X210.82Y-124.46
X213.36Y-100.33
X213.36Y-107.95
X215.9Y-100.33
X215.9Y-107.95
X215.9Y-116.84
X215.9Y-124.46
X218.44Y-100.33
X218.44Y-107.95
X220.98Y-100.33
X220.98Y-107.95
X220.98Y-116.84
X220.98Y-124.46
X223.52Y-100.33
X223.52Y-107.95
X226.06Y-116.84
X226.06Y-124.46
X227.33Y-102.95
X227.33Y-107.95
X231.14Y-116.84
X231.14Y-124.46
X236.22Y-116.84
X236.22Y-124.46
X241.3Y-116.84
X241.3Y-124.46
X246.38Y-100.33
X246.38Y-107.95
X246.38Y-116.84
X246.38Y-124.46
X248.92Y-100.33
X248.92Y-107.95
X251.46Y-100.33
X251.46Y-107.95
X251.46Y-116.84
X251.46Y-124.46
X254.0Y-100.33
X254.0Y-107.95
X256.54Y-100.33
X256.54Y-107.95
X256.54Y-116.84
X256.54Y-124.46
X259.08Y-100.33
X259.08Y-107.95
X261.62Y-100.33
X261.62Y-107.95
X261.62Y-116.84
X261.62Y-124.46
X264.16Y-100.33
X264.16Y-107.95
X266.7Y-116.84
X266.7Y-124.46
X267.97Y-102.95
X267.97Y-107.95
X271.78Y-116.84
X271.78Y-124.46
T5
X106.0Y-55.88
X106.0Y-58.42
X106.0Y-60.96
X106.84Y-99.06
X106.84Y-104.14
X109.38Y-99.06
X109.38Y-104.14
X124.46Y-147.32
X127.0Y-147.32
X129.54Y-147.32
X132.08Y-147.32
X134.62Y-147.32
X137.16Y-147.32
X139.7Y-147.32
X142.24Y-147.32
X144.145Y-65.405
X146.645Y-67.905
X149.145Y-65.405
X156.21Y-72.865
X156.21Y-80.805
X158.75Y-72.865
X158.75Y-80.805
X161.29Y-72.865
X161.29Y-80.805
X163.83Y-72.865
X163.83Y-80.805
X165.1Y-147.32
X167.64Y-147.32
X170.18Y-147.32
X172.72Y-147.32
X175.26Y-147.32
X177.8Y-147.32
X180.34Y-147.32
X182.88Y-147.32
X205.74Y-147.32
X208.28Y-147.32
X210.82Y-147.32
X213.36Y-147.32
X215.9Y-147.32
X218.44Y-147.32
X220.98Y-147.32
X223.52Y-147.32
X246.38Y-147.32
X248.92Y-147.32
X251.46Y-147.32
X254.0Y-147.32
X256.54Y-147.32
X259.08Y-147.32
X261.62Y-147.32
X264.16Y-147.32
T6
X105.84Y-67.945
X105.84Y-70.485
X105.84Y-73.025
X105.84Y-75.565
X105.84Y-78.105
X105.84Y-80.645
X105.84Y-83.185
X105.84Y-85.725
X105.84Y-88.265
X105.84Y-90.805
X108.38Y-67.945
X108.38Y-70.485
X108.38Y-73.025
X108.38Y-75.565
X108.38Y-78.105
X108.38Y-80.645
X108.38Y-83.185
X108.38Y-85.725
X108.38Y-88.265
X108.38Y-90.805
T7
X114.3Y-129.54
X114.3Y-137.16
X119.38Y-129.54
X119.38Y-137.16
X124.46Y-129.54
X124.46Y-137.16
X129.54Y-129.57
X129.54Y-137.19
X134.62Y-129.54
X134.62Y-137.16
X139.7Y-129.54
X139.7Y-137.16
X144.78Y-129.54
X144.78Y-137.16
X149.86Y-129.54
X149.86Y-137.16
X154.94Y-129.54
X154.94Y-137.16
X160.02Y-129.54
X160.02Y-137.16
X165.1Y-129.54
X165.1Y-137.16
X170.18Y-129.54
X170.18Y-137.16
X175.26Y-129.54
X175.26Y-137.16
X180.34Y-129.54
X180.34Y-137.16
X185.42Y-129.54
X185.42Y-137.16
X190.5Y-129.54
X190.5Y-137.16
X195.58Y-129.54
X195.58Y-137.16
X200.66Y-129.54
X200.66Y-137.16
X205.74Y-129.54
X205.74Y-137.16
X210.82Y-129.54
X210.82Y-137.16
X215.9Y-129.54
X215.9Y-137.16
X220.98Y-129.54
X220.98Y-137.16
X226.06Y-129.54
X226.06Y-137.16
X231.14Y-129.54
X231.14Y-137.16
X236.22Y-129.54
X236.22Y-137.16
X241.3Y-129.54
X241.3Y-137.16
X246.38Y-129.54
X246.38Y-137.16
X251.46Y-129.54
X251.46Y-137.16
X256.54Y-129.54
X256.54Y-137.16
X261.62Y-129.54
X261.62Y-137.16
X266.7Y-129.54
X266.7Y-137.16
X271.78Y-129.54
X271.78Y-137.16
T8
X109.0Y-49.0
X109.0Y-145.0
X276.0Y-49.0
X276.0Y-145.0
T0
M30
